<mxfile host="65bd71144e">
    <diagram id="3hE053ZPc2h7RsrpEtxz" name="第 1 页">
        <mxGraphModel dx="1977" dy="552" grid="1" gridSize="10" guides="1" tooltips="1" connect="1" arrows="1" fold="1" page="1" pageScale="1" pageWidth="827" pageHeight="1169" background="none" math="0" shadow="0">
            <root>
                <mxCell id="0"/>
                <mxCell id="1" parent="0"/>
                <mxCell id="6" value="&lt;div data-docx-has-block-data=&quot;false&quot; data-lark-html-role=&quot;root&quot; data-page-id=&quot;HkV0dZt13oCEn7xoSg5cNZIpnHd&quot; style=&quot;font-size: 14px;&quot;&gt;&lt;div class=&quot;old-record-id-Kcojdy8keo8ZgrxELRQcDMldnEd&quot; style=&quot;font-size: 14px;&quot;&gt;&lt;br style=&quot;font-size: 14px;&quot;&gt;&lt;/div&gt;&lt;/div&gt;" style="rounded=1;whiteSpace=wrap;html=1;fontFamily=Architects Daughter;fontSource=https%3A%2F%2Ffonts.googleapis.com%2Fcss%3Ffamily%3DArchitects%2BDaughter;fillColor=#fff2cc;strokeColor=#d6b656;dashed=1;dashPattern=12 12;sketch=1;curveFitting=1;jiggle=2;fontSize=14;" parent="1" vertex="1">
                    <mxGeometry x="-170" y="170" width="380" height="320" as="geometry"/>
                </mxCell>
                <mxCell id="12" value="VideoSys" style="text;html=1;align=center;verticalAlign=middle;resizable=0;points=[];autosize=1;strokeColor=none;fillColor=none;fontSize=14;fontFamily=Architects Daughter;sketch=1;hachureGap=4;jiggle=2;curveFitting=1;fontSource=https%3A%2F%2Ffonts.googleapis.com%2Fcss%3Ffamily%3DArchitects%2BDaughter;" parent="1" vertex="1">
                    <mxGeometry x="70" y="125" width="80" height="30" as="geometry"/>
                </mxCell>
                <mxCell id="32" value="" style="group" parent="1" vertex="1" connectable="0">
                    <mxGeometry x="40" y="330" width="160" height="320" as="geometry"/>
                </mxCell>
                <mxCell id="23" value="&lt;div data-docx-has-block-data=&quot;false&quot; data-lark-html-role=&quot;root&quot; data-page-id=&quot;HkV0dZt13oCEn7xoSg5cNZIpnHd&quot; style=&quot;font-size: 14px;&quot;&gt;&lt;div class=&quot;old-record-id-X1DFdvIMaorpNbxsa4kc5Xtonff&quot; style=&quot;font-size: 14px;&quot;&gt;VideoSys&lt;/div&gt;&lt;div class=&quot;old-record-id-X1DFdvIMaorpNbxsa4kc5Xtonff&quot; style=&quot;font-size: 14px;&quot;&gt;Engine&lt;/div&gt;&lt;/div&gt;&lt;span class=&quot;lark-record-clipboard&quot; data-lark-record-format=&quot;docx/text&quot; data-lark-record-data=&quot;{&amp;quot;rootId&amp;quot;:&amp;quot;HkV0dZt13oCEn7xoSg5cNZIpnHd&amp;quot;,&amp;quot;text&amp;quot;:{&amp;quot;initialAttributedTexts&amp;quot;:{&amp;quot;text&amp;quot;:{&amp;quot;0&amp;quot;:&amp;quot;class CogVideoXPipeline&amp;quot;},&amp;quot;attribs&amp;quot;:{&amp;quot;0&amp;quot;:&amp;quot;*0+n&amp;quot;}},&amp;quot;apool&amp;quot;:{&amp;quot;numToAttrib&amp;quot;:{&amp;quot;0&amp;quot;:[&amp;quot;author&amp;quot;,&amp;quot;7341574719856918532&amp;quot;]},&amp;quot;nextNum&amp;quot;:1}},&amp;quot;type&amp;quot;:&amp;quot;text&amp;quot;,&amp;quot;referenceRecordMap&amp;quot;:{},&amp;quot;extra&amp;quot;:{&amp;quot;channel&amp;quot;:&amp;quot;saas&amp;quot;,&amp;quot;pasteRandomId&amp;quot;:&amp;quot;1f65ed69-e5ea-4d61-8f57-36bb097caa05&amp;quot;,&amp;quot;mention_page_title&amp;quot;:{},&amp;quot;external_mention_url&amp;quot;:{}},&amp;quot;isKeepQuoteContainer&amp;quot;:false,&amp;quot;isFromCode&amp;quot;:true,&amp;quot;selection&amp;quot;:[{&amp;quot;id&amp;quot;:187,&amp;quot;type&amp;quot;:&amp;quot;text&amp;quot;,&amp;quot;selection&amp;quot;:{&amp;quot;start&amp;quot;:0,&amp;quot;end&amp;quot;:23},&amp;quot;recordId&amp;quot;:&amp;quot;X1DFdvIMaorpNbxsa4kc5Xtonff&amp;quot;}],&amp;quot;payloadMap&amp;quot;:{},&amp;quot;isCut&amp;quot;:false}&quot; style=&quot;font-size: 14px;&quot;&gt;&lt;/span&gt;" style="rounded=1;whiteSpace=wrap;html=1;sketch=1;curveFitting=1;jiggle=2;fontFamily=Architects Daughter;fontSource=https%3A%2F%2Ffonts.googleapis.com%2Fcss%3Ffamily%3DArchitects%2BDaughter;verticalAlign=top;align=left;fontSize=14;" parent="32" vertex="1">
                    <mxGeometry width="160" height="130" as="geometry"/>
                </mxCell>
                <mxCell id="31" value="&lt;span style=&quot;background-color: rgb(255, 255, 255);&quot;&gt;run_worker&lt;/span&gt;" style="shape=process;whiteSpace=wrap;html=1;backgroundOutline=1;rounded=1;shadow=0;glass=0;dashed=1;dashPattern=1 2;sketch=1;hachureGap=4;jiggle=2;fillStyle=auto;curveFitting=1;fontFamily=Architects Daughter;fontSource=https%3A%2F%2Ffonts.googleapis.com%2Fcss%3Ffamily%3DArchitects%2BDaughter;fontSize=14;fillColor=default;" parent="32" vertex="1">
                    <mxGeometry x="20" y="56.470588235294116" width="120" height="28.235294117647058" as="geometry"/>
                </mxCell>
                <mxCell id="13" value="CogVideoX" style="text;html=1;align=center;verticalAlign=middle;resizable=0;points=[];autosize=1;strokeColor=none;fillColor=none;fontSize=14;fontFamily=Architects Daughter;sketch=1;hachureGap=4;jiggle=2;curveFitting=1;fontSource=https%3A%2F%2Ffonts.googleapis.com%2Fcss%3Ffamily%3DArchitects%2BDaughter;" parent="1" vertex="1">
                    <mxGeometry x="450" y="125" width="90" height="30" as="geometry"/>
                </mxCell>
                <mxCell id="7" value="&lt;div data-docx-has-block-data=&quot;false&quot; data-lark-html-role=&quot;root&quot; data-page-id=&quot;HkV0dZt13oCEn7xoSg5cNZIpnHd&quot; style=&quot;font-size: 14px;&quot;&gt;&lt;div class=&quot;old-record-id-Kcojdy8keo8ZgrxELRQcDMldnEd&quot; style=&quot;font-size: 14px;&quot;&gt;&lt;br style=&quot;font-size: 14px;&quot;&gt;&lt;/div&gt;&lt;/div&gt;" style="rounded=1;whiteSpace=wrap;html=1;fontFamily=Architects Daughter;fontSource=https%3A%2F%2Ffonts.googleapis.com%2Fcss%3Ffamily%3DArchitects%2BDaughter;fillColor=#dae8fc;strokeColor=#6c8ebf;dashed=1;dashPattern=12 12;sketch=1;curveFitting=1;jiggle=2;fontSize=14;" parent="1" vertex="1">
                    <mxGeometry x="290" y="155" width="380" height="390" as="geometry"/>
                </mxCell>
                <mxCell id="34" value="&lt;div data-docx-has-block-data=&quot;false&quot; data-lark-html-role=&quot;root&quot; data-page-id=&quot;HkV0dZt13oCEn7xoSg5cNZIpnHd&quot; style=&quot;font-size: 14px;&quot;&gt;&lt;div class=&quot;old-record-id-X1DFdvIMaorpNbxsa4kc5Xtonff&quot; style=&quot;font-size: 14px;&quot;&gt;&lt;div style=&quot;border-color: var(--border-color); text-align: center;&quot; class=&quot;old-record-id-BqKcdmSZCoitDuxqezPcdQoInPd&quot;&gt;CogVideoX&lt;/div&gt;&lt;div style=&quot;border-color: var(--border-color); text-align: center;&quot; class=&quot;old-record-id-BqKcdmSZCoitDuxqezPcdQoInPd&quot;&gt;Pipeline&lt;/div&gt;&lt;/div&gt;&lt;/div&gt;" style="rounded=1;whiteSpace=wrap;html=1;sketch=1;curveFitting=1;jiggle=2;fontFamily=Architects Daughter;fontSource=https%3A%2F%2Ffonts.googleapis.com%2Fcss%3Ffamily%3DArchitects%2BDaughter;verticalAlign=top;align=left;fontSize=14;" parent="1" vertex="1">
                    <mxGeometry x="310" y="170" width="190" height="320" as="geometry"/>
                </mxCell>
                <mxCell id="4" value="&lt;div data-docx-has-block-data=&quot;false&quot; data-lark-html-role=&quot;root&quot; data-page-id=&quot;HkV0dZt13oCEn7xoSg5cNZIpnHd&quot; style=&quot;font-size: 14px;&quot;&gt;&lt;div class=&quot;old-record-id-X1DFdvIMaorpNbxsa4kc5Xtonff&quot; style=&quot;font-size: 14px;&quot;&gt;CogVideoX&lt;/div&gt;&lt;div class=&quot;old-record-id-X1DFdvIMaorpNbxsa4kc5Xtonff&quot; style=&quot;font-size: 14px;&quot;&gt;Transformer3DModel&lt;/div&gt;&lt;/div&gt;" style="rounded=1;whiteSpace=wrap;html=1;sketch=1;curveFitting=1;jiggle=2;fontFamily=Architects Daughter;fontSource=https%3A%2F%2Ffonts.googleapis.com%2Fcss%3Ffamily%3DArchitects%2BDaughter;fontSize=14;" parent="1" vertex="1">
                    <mxGeometry x="530" y="270" width="120" height="60" as="geometry"/>
                </mxCell>
                <mxCell id="5" value="&lt;div data-docx-has-block-data=&quot;false&quot; data-lark-html-role=&quot;root&quot; data-page-id=&quot;HkV0dZt13oCEn7xoSg5cNZIpnHd&quot; style=&quot;font-size: 14px;&quot;&gt;&lt;div class=&quot;old-record-id-X1DFdvIMaorpNbxsa4kc5Xtonff&quot; style=&quot;font-size: 14px;&quot;&gt;&lt;div data-docx-has-block-data=&quot;false&quot; data-lark-html-role=&quot;root&quot; data-page-id=&quot;HkV0dZt13oCEn7xoSg5cNZIpnHd&quot; style=&quot;font-size: 14px;&quot;&gt;&lt;div class=&quot;old-record-id-BqKcdmSZCoitDuxqezPcdQoInPd&quot; style=&quot;font-size: 14px;&quot;&gt;CogVideoX&lt;/div&gt;&lt;div class=&quot;old-record-id-BqKcdmSZCoitDuxqezPcdQoInPd&quot; style=&quot;font-size: 14px;&quot;&gt;DDIMScheduler&lt;/div&gt;&lt;/div&gt;&lt;span class=&quot;lark-record-clipboard&quot; data-lark-record-format=&quot;docx/text&quot; data-lark-record-data=&quot;{&amp;quot;rootId&amp;quot;:&amp;quot;HkV0dZt13oCEn7xoSg5cNZIpnHd&amp;quot;,&amp;quot;text&amp;quot;:{&amp;quot;initialAttributedTexts&amp;quot;:{&amp;quot;text&amp;quot;:{&amp;quot;0&amp;quot;:&amp;quot;CogVideoXDDIMScheduler&amp;quot;},&amp;quot;attribs&amp;quot;:{&amp;quot;0&amp;quot;:&amp;quot;*0+m&amp;quot;}},&amp;quot;apool&amp;quot;:{&amp;quot;numToAttrib&amp;quot;:{&amp;quot;0&amp;quot;:[&amp;quot;author&amp;quot;,&amp;quot;7341574719856918532&amp;quot;]},&amp;quot;nextNum&amp;quot;:1}},&amp;quot;type&amp;quot;:&amp;quot;text&amp;quot;,&amp;quot;referenceRecordMap&amp;quot;:{},&amp;quot;extra&amp;quot;:{&amp;quot;channel&amp;quot;:&amp;quot;saas&amp;quot;,&amp;quot;pasteRandomId&amp;quot;:&amp;quot;551fb06e-28c9-4f04-a162-89044842537b&amp;quot;,&amp;quot;mention_page_title&amp;quot;:{},&amp;quot;external_mention_url&amp;quot;:{}},&amp;quot;isKeepQuoteContainer&amp;quot;:false,&amp;quot;isFromCode&amp;quot;:true,&amp;quot;selection&amp;quot;:[{&amp;quot;id&amp;quot;:205,&amp;quot;type&amp;quot;:&amp;quot;text&amp;quot;,&amp;quot;selection&amp;quot;:{&amp;quot;start&amp;quot;:6,&amp;quot;end&amp;quot;:28},&amp;quot;recordId&amp;quot;:&amp;quot;BqKcdmSZCoitDuxqezPcdQoInPd&amp;quot;}],&amp;quot;payloadMap&amp;quot;:{},&amp;quot;isCut&amp;quot;:false}&quot; style=&quot;font-size: 14px;&quot;&gt;&lt;/span&gt;&lt;/div&gt;&lt;/div&gt;" style="rounded=1;whiteSpace=wrap;html=1;sketch=1;curveFitting=1;jiggle=2;fontFamily=Architects Daughter;fontSource=https%3A%2F%2Ffonts.googleapis.com%2Fcss%3Ffamily%3DArchitects%2BDaughter;fontSize=14;" parent="1" vertex="1">
                    <mxGeometry x="540" y="410" width="120" height="60" as="geometry"/>
                </mxCell>
                <mxCell id="68" value="generate" style="swimlane;fontStyle=0;childLayout=stackLayout;horizontal=1;startSize=26;fillColor=none;horizontalStack=0;resizeParent=1;resizeParentMax=0;resizeLast=0;collapsible=1;marginBottom=0;html=1;rounded=1;shadow=0;glass=0;dashed=1;dashPattern=1 2;sketch=1;hachureGap=4;jiggle=2;fillStyle=auto;curveFitting=1;fontFamily=Architects Daughter;fontSource=https%3A%2F%2Ffonts.googleapis.com%2Fcss%3Ffamily%3DArchitects%2BDaughter;fontSize=14;" parent="1" vertex="1">
                    <mxGeometry x="320" y="220" width="170" height="182" as="geometry">
                        <mxRectangle x="317.5" y="220" width="100" height="30" as="alternateBounds"/>
                    </mxGeometry>
                </mxCell>
                <mxCell id="69" value="&lt;span style=&quot;background-color: rgb(251, 188, 188);&quot;&gt;1. encode_prompt&lt;/span&gt;" style="text;strokeColor=none;fillColor=none;align=left;verticalAlign=top;spacingLeft=4;spacingRight=4;overflow=hidden;rotatable=0;points=[[0,0.5],[1,0.5]];portConstraint=eastwest;whiteSpace=wrap;html=1;rounded=1;shadow=0;glass=0;dashed=1;dashPattern=1 2;sketch=1;hachureGap=4;jiggle=2;fillStyle=auto;curveFitting=1;fontFamily=Architects Daughter;fontSource=https%3A%2F%2Ffonts.googleapis.com%2Fcss%3Ffamily%3DArchitects%2BDaughter;fontSize=14;" parent="68" vertex="1">
                    <mxGeometry y="26" width="170" height="26" as="geometry"/>
                </mxCell>
                <mxCell id="70" value="&lt;span style=&quot;background-color: rgb(245, 173, 173);&quot;&gt;2.&amp;nbsp;Denoising loop &amp;gt;&amp;gt; 50&lt;/span&gt;" style="text;strokeColor=none;fillColor=none;align=left;verticalAlign=top;spacingLeft=4;spacingRight=4;overflow=hidden;rotatable=0;points=[[0,0.5],[1,0.5]];portConstraint=eastwest;whiteSpace=wrap;html=1;rounded=1;shadow=0;glass=0;dashed=1;dashPattern=1 2;sketch=1;hachureGap=4;jiggle=2;fillStyle=auto;curveFitting=1;fontFamily=Architects Daughter;fontSource=https%3A%2F%2Ffonts.googleapis.com%2Fcss%3Ffamily%3DArchitects%2BDaughter;fontSize=14;" parent="68" vertex="1">
                    <mxGeometry y="52" width="170" height="26" as="geometry"/>
                </mxCell>
                <mxCell id="71" value="&lt;span style=&quot;background-color: rgb(153, 255, 204);&quot;&gt;2.1 noise_pred&lt;/span&gt;" style="text;strokeColor=none;fillColor=none;align=left;verticalAlign=top;spacingLeft=4;spacingRight=4;overflow=hidden;rotatable=0;points=[[0,0.5],[1,0.5]];portConstraint=eastwest;whiteSpace=wrap;html=1;rounded=1;shadow=0;glass=0;dashed=1;dashPattern=1 2;sketch=1;hachureGap=4;jiggle=2;fillStyle=auto;curveFitting=1;fontFamily=Architects Daughter;fontSource=https%3A%2F%2Ffonts.googleapis.com%2Fcss%3Ffamily%3DArchitects%2BDaughter;fontSize=14;" parent="68" vertex="1">
                    <mxGeometry y="78" width="170" height="26" as="geometry"/>
                </mxCell>
                <mxCell id="76" value="&lt;span style=&quot;background-color: rgb(153, 255, 204);&quot;&gt;2.2 do_guidance&lt;/span&gt;" style="text;strokeColor=none;fillColor=none;align=left;verticalAlign=top;spacingLeft=4;spacingRight=4;overflow=hidden;rotatable=0;points=[[0,0.5],[1,0.5]];portConstraint=eastwest;whiteSpace=wrap;html=1;rounded=1;shadow=0;glass=0;dashed=1;dashPattern=1 2;sketch=1;hachureGap=4;jiggle=2;fillStyle=auto;curveFitting=1;fontFamily=Architects Daughter;fontSource=https%3A%2F%2Ffonts.googleapis.com%2Fcss%3Ffamily%3DArchitects%2BDaughter;fontSize=14;" parent="68" vertex="1">
                    <mxGeometry y="104" width="170" height="26" as="geometry"/>
                </mxCell>
                <mxCell id="75" value="&lt;span style=&quot;background-color: rgb(153, 255, 204);&quot;&gt;2.3&amp;nbsp;self.scheduler.step&lt;/span&gt;" style="text;strokeColor=none;fillColor=none;align=left;verticalAlign=top;spacingLeft=4;spacingRight=4;overflow=hidden;rotatable=0;points=[[0,0.5],[1,0.5]];portConstraint=eastwest;whiteSpace=wrap;html=1;rounded=1;shadow=0;glass=0;dashed=1;dashPattern=1 2;sketch=1;hachureGap=4;jiggle=2;fillStyle=auto;curveFitting=1;fontFamily=Architects Daughter;fontSource=https%3A%2F%2Ffonts.googleapis.com%2Fcss%3Ffamily%3DArchitects%2BDaughter;fontSize=14;" parent="68" vertex="1">
                    <mxGeometry y="130" width="170" height="26" as="geometry"/>
                </mxCell>
                <mxCell id="74" style="text;strokeColor=none;fillColor=none;align=left;verticalAlign=top;spacingLeft=4;spacingRight=4;overflow=hidden;rotatable=0;points=[[0,0.5],[1,0.5]];portConstraint=eastwest;whiteSpace=wrap;html=1;rounded=1;shadow=0;glass=0;dashed=1;dashPattern=1 2;sketch=1;hachureGap=4;jiggle=2;fillStyle=auto;curveFitting=1;fontFamily=Architects Daughter;fontSource=https%3A%2F%2Ffonts.googleapis.com%2Fcss%3Ffamily%3DArchitects%2BDaughter;fontSize=14;" parent="68" vertex="1">
                    <mxGeometry y="156" width="170" height="26" as="geometry"/>
                </mxCell>
                <mxCell id="77" style="edgeStyle=none;sketch=1;hachureGap=4;jiggle=2;curveFitting=1;html=1;entryX=0;entryY=0.5;entryDx=0;entryDy=0;fontFamily=Architects Daughter;fontSource=https%3A%2F%2Ffonts.googleapis.com%2Fcss%3Ffamily%3DArchitects%2BDaughter;fontSize=16;" parent="1" source="75" target="5" edge="1">
                    <mxGeometry relative="1" as="geometry"/>
                </mxCell>
                <mxCell id="78" style="edgeStyle=none;sketch=1;hachureGap=4;jiggle=2;curveFitting=1;html=1;entryX=0;entryY=0.5;entryDx=0;entryDy=0;fontFamily=Architects Daughter;fontSource=https%3A%2F%2Ffonts.googleapis.com%2Fcss%3Ffamily%3DArchitects%2BDaughter;fontSize=16;" parent="1" source="71" target="4" edge="1">
                    <mxGeometry relative="1" as="geometry"/>
                </mxCell>
                <mxCell id="79" value="" style="group" parent="1" vertex="1" connectable="0">
                    <mxGeometry x="42.5" y="180" width="155" height="340" as="geometry"/>
                </mxCell>
                <mxCell id="86" value="" style="group" parent="79" vertex="1" connectable="0">
                    <mxGeometry width="155" height="120" as="geometry"/>
                </mxCell>
                <mxCell id="80" value="&lt;div data-docx-has-block-data=&quot;false&quot; data-lark-html-role=&quot;root&quot; data-page-id=&quot;HkV0dZt13oCEn7xoSg5cNZIpnHd&quot; style=&quot;font-size: 14px;&quot;&gt;&lt;div class=&quot;old-record-id-X1DFdvIMaorpNbxsa4kc5Xtonff&quot; style=&quot;font-size: 14px;&quot;&gt;VideoSys&lt;/div&gt;&lt;div class=&quot;old-record-id-X1DFdvIMaorpNbxsa4kc5Xtonff&quot; style=&quot;font-size: 14px;&quot;&gt;Pipeline&lt;/div&gt;&lt;/div&gt;" style="rounded=1;whiteSpace=wrap;html=1;sketch=1;curveFitting=1;jiggle=2;fontFamily=Architects Daughter;fontSource=https%3A%2F%2Ffonts.googleapis.com%2Fcss%3Ffamily%3DArchitects%2BDaughter;verticalAlign=top;align=left;fontSize=14;" parent="86" vertex="1">
                    <mxGeometry width="155" height="120.00000000000001" as="geometry"/>
                </mxCell>
                <mxCell id="85" value="&lt;span style=&quot;background-color: rgb(255, 255, 255);&quot;&gt;generate&lt;/span&gt;" style="shape=process;whiteSpace=wrap;html=1;backgroundOutline=1;rounded=1;shadow=0;glass=0;dashed=1;dashPattern=1 2;sketch=1;hachureGap=4;jiggle=2;fillStyle=auto;curveFitting=1;fontFamily=Architects Daughter;fontSource=https%3A%2F%2Ffonts.googleapis.com%2Fcss%3Ffamily%3DArchitects%2BDaughter;fontSize=14;fillColor=default;" parent="86" vertex="1">
                    <mxGeometry x="17.5" y="56.47058823529412" width="120" height="21.176470588235297" as="geometry"/>
                </mxCell>
                <mxCell id="87" value="" style="endArrow=none;dashed=1;html=1;dashPattern=1 3;strokeWidth=2;sketch=1;hachureGap=4;jiggle=2;curveFitting=1;fontFamily=Architects Daughter;fontSource=https%3A%2F%2Ffonts.googleapis.com%2Fcss%3Ffamily%3DArchitects%2BDaughter;fontSize=16;exitX=0.972;exitY=0.032;exitDx=0;exitDy=0;exitPerimeter=0;entryX=0.028;entryY=0.024;entryDx=0;entryDy=0;entryPerimeter=0;" parent="1" source="80" target="34" edge="1">
                    <mxGeometry width="50" height="50" relative="1" as="geometry">
                        <mxPoint x="320" y="350" as="sourcePoint"/>
                        <mxPoint x="370" y="300" as="targetPoint"/>
                    </mxGeometry>
                </mxCell>
                <mxCell id="104" value="inherit" style="edgeLabel;html=1;align=center;verticalAlign=middle;resizable=0;points=[];fontSize=20;fontFamily=Architects Daughter;" parent="87" vertex="1" connectable="0">
                    <mxGeometry x="-0.1518" relative="1" as="geometry">
                        <mxPoint as="offset"/>
                    </mxGeometry>
                </mxCell>
                <mxCell id="88" value="" style="group" parent="1" vertex="1" connectable="0">
                    <mxGeometry x="-210" y="180" width="215" height="340" as="geometry"/>
                </mxCell>
                <mxCell id="89" value="" style="group" parent="88" vertex="1" connectable="0">
                    <mxGeometry x="60" width="155" height="120" as="geometry"/>
                </mxCell>
                <mxCell id="90" value="&lt;div data-docx-has-block-data=&quot;false&quot; data-lark-html-role=&quot;root&quot; data-page-id=&quot;HkV0dZt13oCEn7xoSg5cNZIpnHd&quot; style=&quot;font-size: 14px;&quot;&gt;&lt;div class=&quot;old-record-id-X1DFdvIMaorpNbxsa4kc5Xtonff&quot; style=&quot;font-size: 14px;&quot;&gt;comm&lt;/div&gt;&lt;/div&gt;" style="rounded=1;whiteSpace=wrap;html=1;sketch=1;curveFitting=1;jiggle=2;fontFamily=Architects Daughter;fontSource=https%3A%2F%2Ffonts.googleapis.com%2Fcss%3Ffamily%3DArchitects%2BDaughter;verticalAlign=top;align=left;fontSize=14;" parent="89" vertex="1">
                    <mxGeometry width="155" height="120.00000000000001" as="geometry"/>
                </mxCell>
                <mxCell id="91" value="&lt;span style=&quot;background-color: rgb(255, 255, 255);&quot;&gt;sharding&lt;/span&gt;" style="shape=process;whiteSpace=wrap;html=1;backgroundOutline=1;rounded=1;shadow=0;glass=0;dashed=1;dashPattern=1 2;sketch=1;hachureGap=4;jiggle=2;fillStyle=auto;curveFitting=1;fontFamily=Architects Daughter;fontSource=https%3A%2F%2Ffonts.googleapis.com%2Fcss%3Ffamily%3DArchitects%2BDaughter;fontSize=14;fillColor=default;" parent="89" vertex="1">
                    <mxGeometry x="17.5" y="40.000588235294124" width="120" height="21.176470588235297" as="geometry"/>
                </mxCell>
                <mxCell id="93" value="&lt;span style=&quot;background-color: rgb(255, 255, 255);&quot;&gt;All2All&lt;/span&gt;" style="shape=process;whiteSpace=wrap;html=1;backgroundOutline=1;rounded=1;shadow=0;glass=0;dashed=1;dashPattern=1 2;sketch=1;hachureGap=4;jiggle=2;fillStyle=auto;curveFitting=1;fontFamily=Architects Daughter;fontSource=https%3A%2F%2Ffonts.googleapis.com%2Fcss%3Ffamily%3DArchitects%2BDaughter;fontSize=14;fillColor=default;" parent="89" vertex="1">
                    <mxGeometry x="17.5" y="70.00058823529412" width="120" height="21.176470588235297" as="geometry"/>
                </mxCell>
                <mxCell id="94" value="&lt;div data-docx-has-block-data=&quot;false&quot; data-lark-html-role=&quot;root&quot; data-page-id=&quot;HkV0dZt13oCEn7xoSg5cNZIpnHd&quot; style=&quot;font-size: 14px;&quot;&gt;&lt;div class=&quot;old-record-id-X1DFdvIMaorpNbxsa4kc5Xtonff&quot; style=&quot;font-size: 14px;&quot;&gt;PABManager&lt;/div&gt;&lt;/div&gt;" style="rounded=1;whiteSpace=wrap;html=1;sketch=1;curveFitting=1;jiggle=2;fontFamily=Architects Daughter;fontSource=https%3A%2F%2Ffonts.googleapis.com%2Fcss%3Ffamily%3DArchitects%2BDaughter;verticalAlign=top;align=left;fontSize=14;" parent="88" vertex="1">
                    <mxGeometry x="60" y="149" width="155" height="120.00000000000001" as="geometry"/>
                </mxCell>
                <mxCell id="9" style="edgeStyle=none;sketch=1;hachureGap=4;jiggle=2;curveFitting=1;html=1;entryX=0;entryY=0.5;entryDx=0;entryDy=0;fontFamily=Architects Daughter;fontSource=https%3A%2F%2Ffonts.googleapis.com%2Fcss%3Ffamily%3DArchitects%2BDaughter;fontSize=14;exitX=1;exitY=0.5;exitDx=0;exitDy=0;" parent="1" source="31" target="69" edge="1">
                    <mxGeometry relative="1" as="geometry">
                        <mxPoint x="182.5" y="281.875" as="sourcePoint"/>
                        <mxPoint x="390" y="230" as="targetPoint"/>
                    </mxGeometry>
                </mxCell>
                <mxCell id="54" value="“generate”" style="edgeLabel;html=1;align=center;verticalAlign=middle;resizable=0;points=[];fontSize=14;fontFamily=Architects Daughter;" parent="9" vertex="1" connectable="0">
                    <mxGeometry x="0.1519" y="3" relative="1" as="geometry">
                        <mxPoint x="-11" y="7" as="offset"/>
                    </mxGeometry>
                </mxCell>
                <mxCell id="96" value="" style="rounded=1;whiteSpace=wrap;html=1;fontFamily=Architects Daughter;fontSource=https%3A%2F%2Ffonts.googleapis.com%2Fcss%3Ffamily%3DArchitects%2BDaughter;fillColor=#d5e8d4;strokeColor=#82b366;dashed=1;dashPattern=12 12;sketch=1;curveFitting=1;jiggle=2;fontSize=14;" parent="1" vertex="1">
                    <mxGeometry x="710" y="155" width="220" height="65" as="geometry"/>
                </mxCell>
                <mxCell id="97" value="T5" style="text;html=1;align=center;verticalAlign=middle;resizable=0;points=[];autosize=1;strokeColor=none;fillColor=none;fontSize=14;fontFamily=Architects Daughter;sketch=1;hachureGap=4;jiggle=2;curveFitting=1;fontSource=https%3A%2F%2Ffonts.googleapis.com%2Fcss%3Ffamily%3DArchitects%2BDaughter;" parent="1" vertex="1">
                    <mxGeometry x="800" y="125" width="40" height="30" as="geometry"/>
                </mxCell>
                <mxCell id="102" value="&lt;div data-docx-has-block-data=&quot;false&quot; data-lark-html-role=&quot;root&quot; data-page-id=&quot;HkV0dZt13oCEn7xoSg5cNZIpnHd&quot;&gt;&lt;div class=&quot;old-record-id-J48HdFNzWonPpJxfYHucVGwznZb&quot; style=&quot;&quot;&gt;_get_t5_prompt_embeds&lt;/div&gt;&lt;/div&gt;&lt;span class=&quot;lark-record-clipboard&quot; data-lark-record-format=&quot;docx/text&quot; data-lark-record-data=&quot;{&amp;quot;rootId&amp;quot;:&amp;quot;HkV0dZt13oCEn7xoSg5cNZIpnHd&amp;quot;,&amp;quot;text&amp;quot;:{&amp;quot;initialAttributedTexts&amp;quot;:{&amp;quot;text&amp;quot;:{&amp;quot;0&amp;quot;:&amp;quot;_get_t5_prompt_embeds&amp;quot;},&amp;quot;attribs&amp;quot;:{&amp;quot;0&amp;quot;:&amp;quot;*0+l&amp;quot;}},&amp;quot;apool&amp;quot;:{&amp;quot;numToAttrib&amp;quot;:{&amp;quot;0&amp;quot;:[&amp;quot;author&amp;quot;,&amp;quot;7341574719856918532&amp;quot;]},&amp;quot;nextNum&amp;quot;:1}},&amp;quot;type&amp;quot;:&amp;quot;text&amp;quot;,&amp;quot;referenceRecordMap&amp;quot;:{},&amp;quot;extra&amp;quot;:{&amp;quot;channel&amp;quot;:&amp;quot;saas&amp;quot;,&amp;quot;pasteRandomId&amp;quot;:&amp;quot;a281d2ea-6f2d-4b88-9556-22b95d06cc1d&amp;quot;,&amp;quot;mention_page_title&amp;quot;:{},&amp;quot;external_mention_url&amp;quot;:{}},&amp;quot;isKeepQuoteContainer&amp;quot;:false,&amp;quot;isFromCode&amp;quot;:true,&amp;quot;selection&amp;quot;:[{&amp;quot;id&amp;quot;:186,&amp;quot;type&amp;quot;:&amp;quot;text&amp;quot;,&amp;quot;selection&amp;quot;:{&amp;quot;start&amp;quot;:559,&amp;quot;end&amp;quot;:580},&amp;quot;recordId&amp;quot;:&amp;quot;J48HdFNzWonPpJxfYHucVGwznZb&amp;quot;}],&amp;quot;payloadMap&amp;quot;:{},&amp;quot;isCut&amp;quot;:false}&quot;&gt;&lt;/span&gt;" style="shape=process;whiteSpace=wrap;html=1;backgroundOutline=1;rounded=1;shadow=0;glass=0;dashed=1;dashPattern=1 2;sketch=1;hachureGap=4;jiggle=2;fillStyle=auto;curveFitting=1;fontFamily=Architects Daughter;fontSource=https%3A%2F%2Ffonts.googleapis.com%2Fcss%3Ffamily%3DArchitects%2BDaughter;fontSize=14;fillColor=default;" parent="1" vertex="1">
                    <mxGeometry x="730" y="180" width="190" height="21.18" as="geometry"/>
                </mxCell>
                <mxCell id="103" style="edgeStyle=none;sketch=1;hachureGap=4;jiggle=2;curveFitting=1;html=1;entryX=0;entryY=0.5;entryDx=0;entryDy=0;fontFamily=Architects Daughter;fontSource=https%3A%2F%2Ffonts.googleapis.com%2Fcss%3Ffamily%3DArchitects%2BDaughter;fontSize=16;" parent="1" source="69" target="96" edge="1">
                    <mxGeometry relative="1" as="geometry"/>
                </mxCell>
            </root>
        </mxGraphModel>
    </diagram>
</mxfile>